<?xml version="1.0" encoding="utf-8"?>
<!-- Generator: Adobe Illustrator 22.0.0, SVG Export Plug-In . SVG Version: 6.00 Build 0)  -->
<svg version="1.1" id="Layer_1" xmlns="http://www.w3.org/2000/svg" xmlns:xlink="http://www.w3.org/1999/xlink" x="0px" y="0px"
	 viewBox="0 0 228.8 57.3" style="enable-background:new 0 0 228.8 57.3;" xml:space="preserve">
<style type="text/css">
	.st0{fill:#573588;}
	.st1{fill:#CF9C51;}
	.st2{fill:#666766;}
</style>
<g>
	<polygon class="st0" points="8.1,40.2 8.3,40.3 8,39.5 8,39.7 6,40.4 6,40.2 6.5,39.1 7.7,38.7 7.5,37.9 7.3,38.3 5.4,38.9 
		5.1,38.8 5.3,39.5 6,39.3 5.5,40.2 5.8,41.1 5.9,40.9 	"/>
	<polygon class="st0" points="7.2,43.4 7.6,44.1 7.6,43.9 8.8,43.2 9,42.5 9.7,42.6 9.3,42 9.1,42.1 8,41.9 8.9,41.3 8.5,40.7 
		8.4,41 6.5,42.2 6.3,42.1 6.7,42.7 7.6,42.1 8.6,42.4 8.5,42.7 7.3,43.5 	"/>
	<polygon class="st0" points="10.9,44.2 11.1,44.2 10,43 9.5,43 10.3,44 8.8,45.4 8.6,45.4 9.2,45.9 9.2,45.7 	"/>
	<polygon class="st0" points="20.7,47.9 20.8,47.8 19.2,47.8 18.9,48.2 20.2,48.2 20.2,50.2 20.1,50.4 20.8,50.4 20.7,50.2 	"/>
	<polygon class="st0" points="32.6,38.2 32.5,38 32.1,39.5 32.4,40 32.7,38.7 34.7,39.3 34.8,39.5 35,38.7 34.9,38.8 	"/>
	<polygon class="st0" points="11.5,44.1 12.1,44 13.5,45.2 12.9,45.2 	"/>
	<polygon class="st0" points="12.7,45.8 12.9,45.7 11.5,44.6 10.9,44.7 12.2,45.6 11.1,47.1 10.8,46.9 10.2,46.9 11.4,47.8 
		11.3,47.6 	"/>
	<polygon class="st0" points="13.8,49.1 14.5,49.4 14.5,49.2 15.5,47.1 15.6,47.1 14.8,46.7 13.8,47.1 14.1,46.4 13.4,46 13.6,46.4 
		12.6,48.4 12.4,48.4 13.1,48.7 13.1,48.6 13.6,47.5 14.8,47.1 14.9,47.2 14,49 	"/>
	<polygon class="st0" points="16.3,47.4 16.2,47.3 17.6,47.5 17.1,47.8 16.7,47.8 16.6,48.4 17.1,48.5 17.3,48.4 17.1,49.2 17,49 
		16.5,48.9 16.4,49.5 17.5,49.8 17.9,47.7 17.8,47.6 18.6,47.8 18.4,47.9 17.9,50.1 18,50.3 15.6,49.8 15.8,49.7 16,48.9 16.4,48.6 
		16.1,48.2 	"/>
	<polygon class="st0" points="24.2,47.3 24,47.2 25.3,46.7 25.1,47.2 24.8,47.3 25,47.9 25.5,47.7 25.6,47.5 25.9,48.2 25.7,48.2 
		25.3,48.4 25.5,49 26.6,48.5 25.7,46.6 25.6,46.6 26.3,46.2 26.2,46.4 27.2,48.5 27.3,48.6 25.1,49.6 25.2,49.4 24.8,48.7 25,48.2 
		24.5,48 	"/>
	<polygon class="st0" points="31,42 30.8,42.1 31.5,40.8 31.6,41.3 31.4,41.7 32,42 32.3,41.5 32.2,41.4 32.9,41.7 32.7,41.8 
		32.5,42.2 33,42.5 33.6,41.5 31.8,40.5 31.6,40.6 32,39.9 32,40.1 34.1,41.2 34.2,41.1 33.1,43.3 33,43.1 32.3,42.8 32.2,42.2 
		31.7,42.4 	"/>
	<polygon class="st0" points="28.7,44.6 28.7,44.4 28.1,44.9 28.3,44.9 29.4,46.4 28.5,46.2 28.4,47.1 27.2,45.6 26.6,46.1 27,46.2 
		28.3,47.9 28.3,48.1 28.8,47.7 28.7,47.6 28.8,46.6 29.7,46.8 29.8,46.9 30.3,46.5 30.1,46.4 	"/>
	<polygon class="st0" points="30.1,43.1 30.2,43.1 32.1,44.4 32.2,44.6 32.7,43.9 32.3,43.9 30.5,42.7 30.5,42.5 	"/>
	<polygon class="st0" points="23.4,47.5 23.5,47.4 21.7,47.7 21.4,48.2 22.9,47.9 23.3,49.4 22.2,48.7 21.7,48.8 22,50.3 22.8,50.2 
		22.5,50 22.3,49.2 23.4,49.9 23.4,50 24,49.9 23.9,49.8 	"/>
	<polygon class="st0" points="22.7,46.5 23.3,46.4 23.1,46.7 24,46.5 23.7,46.9 22.8,47.2 	"/>
	<g>
		<polygon class="st0" points="29.3,44.4 29.7,44 29.7,44.3 30.3,43.7 30.4,44.2 29.8,44.9 		"/>
		<polygon class="st0" points="30.1,45.2 30.6,44.8 30.6,45.1 31.2,44.4 31.2,45 30.6,45.7 		"/>
	</g>
	<path class="st1" d="M38.8,39.6c-2,7.8-8.7,13.9-17.2,14.6c-0.5,0-1,0.1-1.6,0.1l0,0c-0.5,0-1,0-1.6-0.1C10,53.6,3.2,47.5,1.2,39.6
		c0.1,0.1,0.6,0.1,0.8,0c0.3-0.2,0.2-0.5,0.2-0.5c-0.1,0.2-0.4,0.2-0.7,0.1C1.2,39.1,1,38.7,1,38.6c-0.2-1.2-0.3-2.4-0.3-3.6
		c0.2,0.9,1.2,1.4,2.1,1.9c1,0.6,1.4,1.5,1.5,1.9c0,0.1,0,0.2,0.1,0.3l0,0l0,0c1.7,6.5,7.3,11.4,14.4,12c0.4,0,0.9,0.1,1.3,0.1l0,0
		c0.4,0,0.9,0,1.3-0.1c7-0.6,12.7-5.5,14.4-12l0,0l0,0c0-0.1,0-0.2,0.1-0.3c0.1-0.5,0.5-1.4,1.5-1.9c1-0.6,1.9-1,2.1-1.9
		c0,1.2-0.1,2.5-0.3,3.6l0,0c0,0-0.2,0.4-0.7,0.6c-0.3,0.1-0.5,0-0.7-0.1c0,0,0,0.3,0.2,0.5C38.2,39.8,38.7,39.8,38.8,39.6z
		 M2.6,41.2l-0.1,0.3L3,42.6v-0.1L4.5,42h0.1l-0.2-0.5v0.1l-1,0.4L3,42.2l-0.3-0.7L4.1,41h0.1L4,40.5v0.1L2.6,41.2z M3.8,44.3
		L3.8,44.3L5,43.5l-0.2,1l-0.5,0.3H4.2l0.3,0.5v-0.1l1.4-0.8H6l-0.3-0.5V44L5,44.3l0.2-1L5,42.9V43l-1.4,0.8H3.5L3.8,44.3z
		 M5.2,46.3L5.2,46.3l0.2,0.4v-0.1l1.3-1h0.1l-0.3-0.4v0.1L5.2,46.3z M14.8,52.8l-0.1,0.1l0.5,0.1l-0.1-0.1l0.4-1.5l0.1-0.1
		l-0.5-0.1l0.1,0.1L14.8,52.8z M8.1,49.3H8l1.1,0.9v-0.4l-0.6-0.4L8.8,49l0.5,0.4v0.1l0.3-0.3H9.5L9,48.7l0.3-0.3l0.5,0.4h0.4
		l-1-0.8v0.1L8.1,49.3z M25.4,52.8l-0.1,0.1l0.5-0.2l-0.1-0.1l-0.1-0.2L25.5,52l0.6-0.2l0.1,0.1l-0.1-0.4L26,51.6l-0.6,0.2l-0.1-0.4
		l0.6-0.2l0.2-0.3l-1.3,0.4l0.1,0.1L25.4,52.8z M10.5,51L10.5,51l0.3-0.6h0.1l0.2,0.8v0.1l0.5,0.3l-0.3-1l0.2,0.1l0.4-0.1l0.3-0.5
		L12,49.9l-1.1-0.6v0.1l-0.8,1.4H10L10.5,51z M11.8,50l-0.3,0.5l-0.6-0.4l0.3-0.5L11.8,50z M29,51.4h-0.1l-0.3-0.5l0.7-0.4l0.1-0.4
		l-0.3-0.5l-0.4-0.1l-1.1,0.6h0.1l0.8,1.4v0.1L29,51.4z M28.8,49.8l0.3,0.5l-0.6,0.3l-0.3-0.5L28.8,49.8z M17.7,52l0.3-0.2l-0.6-0.1
		l0,0l-0.5-0.1l0,0h-0.3l-0.3,0.2l0.6,0.1l-0.2,1.4l-0.1,0.1l0.5,0.1L17,53.3l0.2-1.4L17.7,52z M22.3,52l0.2,1.4l-0.1,0.1l1.1-0.2
		l0.2-0.3l-0.2-1.4l0.1-0.1l-1.1,0.2L22.3,52z M23.4,53.1l-0.6,0.1L22.6,52l0.6-0.1L23.4,53.1z M32.2,46.7l0.6,1.7v0.1l0.4-0.4h-0.1
		l-0.4-1l1,0.4v0.1l0.4-0.4H34L32.2,46.7z M34.9,43.3l1,1.4v0.1l0.2-0.4H36l-0.6-0.8l1,0.1v0.1l0.2-0.4h-0.1L34.9,43.3z M35.1,45.9
		l-0.5-0.4l-0.4-1.1v-0.1l-0.3,0.4H34l0.3,0.8l-0.8-0.1v-0.1l-0.3,0.4h0.1l1.1,0.1l0.5,0.4v0.1L35.1,45.9L35.1,45.9z M20.2,52
		L20.2,52l-0.4-0.1l0.1,0.1l-0.5,0.7L18.9,52l0.1-0.1h-0.5l0.1,0.1l0.6,1v0.6l-0.1,0.1h0.5l-0.1-0.1V53L20.2,52z M35.8,42l1.3,0.5
		v0.1l0.4-1.1l-0.1-0.3l-1.3-0.5v-0.1l-0.4,1.1L35.8,42z M37.3,41.5l-0.2,0.6L36,41.6l0.2-0.6L37.3,41.5z M32.1,49.2L32.1,49.2
		L31,48v-0.1l-0.4,0.3h0.1l0.4,0.5l-0.6,0.4l-0.4-0.5v-0.1l-0.4,0.3h0.1l1,1.3v0.1l0.4-0.3h-0.1l-0.4-0.6l0.6-0.4l0.4,0.6v0.1
		L32.1,49.2z M12.8,51.1l0.1,0.3l0.6,0.2l-0.2,0.5l-0.5-0.2l0,0l-0.4-0.2l0.1,0.3l1.1,0.4v-0.1l0.3-0.7l-0.1-0.3l-0.6-0.2l0.2-0.4
		l0.9,0.4L14,50.8l-1-0.4v0.1L12.8,51.1z M6.6,48.1l1.7-0.6h0.1L8,47.1v0.1l-0.9,0.3l0.3-0.9h0.1l-0.4-0.4v0.1L6.6,48.1z"/>
	<path class="st0" d="M28.1,37v-2.9c0-0.1,0-0.2,0.1-0.3s0.2-0.3,0.3-0.4c0.1-0.1,0.3-0.2,0.4-0.1v-1.6c-0.3,0-0.7,0.1-0.9,0.2
		c-0.4,0.2-0.8,0.5-1,0.9c-0.3,0.4-0.4,0.8-0.4,1.3v3.6l1.3,1.3l-1.3,1.3L25,38.7v-6.9h-1.6v6.9l-1.6,1.6L20.4,39l0,0l0,0l1.3-1.3
		v-3.6c0-1.3-1.1-2.4-2.4-2.4h-1.6l0,0h-0.8c0,1.4,0-0.1,0,5.7v0.3l1.3,1.3l-1.3,1.3L14,37.4l0.5-0.5v-2.8c0-1.3-1.1-2.4-2.4-2.4
		h-0.8v1.6H12c0.4,0,0.8,0.4,0.8,0.8v2.1L10,39l3.6,3.6l1.6-1.6l1.6,1.6l2.4-2.4l2.4,2.4l2.4-2.4l2.4,2.4L30,39L28.1,37z M13.6,40.3
		L12.3,39l0.5-0.5l1.3,1.3L13.6,40.3z M18.4,37v-3.7h0.8c0.4,0,0.8,0.4,0.8,0.8V37l-0.8,0.8L18.4,37z"/>
	<path class="st0" d="M27.3,7.5C21.6,4.7,20,2.6,20,2.6s-1.6,2.1-7.3,4.8C9.6,9,6.3,10.8,6.3,15.6c0,2.3,0.8,19.3,0.8,19.3
		s0.3-0.4,0.7-0.8c0.6-0.6,0.6-1.3,0-1.6c0,0,0.1-0.4,0.5-0.4v-0.5h0.9c0,0-0.3-0.2-0.3-0.7c0-0.4,0.2-0.6,0.7-0.9
		c0.4-0.3,0.6-0.6,0.3-0.8c0,0-0.2,0.1-0.1,0.3c0,0-0.3,0-0.2-0.2c0,0-0.2,0.1-0.4,0S9,29,9,29s0.2,0,0.3,0c0.1-0.1,0.2-0.1,0.2-0.1
		s-0.2-0.1-0.3,0c-0.1,0-0.2,0.1-0.4,0s-0.3-0.4-0.3-0.6c0,0,0.2,0.1,0.4,0.1c0,0-0.3-0.3-0.3-0.5C8.5,27.6,8.5,27,9,26.7
		c0,0-0.2,0.4,0.2,0.8l0.7,0.6c0,0,0-0.1,0.2-0.3c0,0,0,0.2,0.2,0.4c0.1,0.1,0.2,0.2,0.3,0.4v-2.4c0,0-0.1-0.2-0.2-0.3
		c0,0,0.1-0.2,0.3-0.2c0,0,0-0.1,0-0.2s-0.4-0.3-0.4-0.6c0-0.3,0.3-0.3,0.3-0.3s0-0.2,0-0.3c0-0.1-0.2-0.1-0.2-0.3
		c0-0.2,0.2-0.2,0.2-0.2v-0.7c0,0-0.1-0.3-0.3-0.5v-0.2h0.4V20l0.2-0.4H11l0.2,0.4v2.4h0.4v0.2c-0.2,0.2-0.3,0.5-0.3,0.5v0.7
		c0,0,0.2,0,0.2,0.2s-0.2,0.3-0.2,0.3c0,0.1,0,0.3,0,0.3s0.3,0,0.3,0.3s-0.4,0.5-0.4,0.6s0,0.2,0,0.2c0.2,0,0.3,0.2,0.3,0.2
		c-0.1,0-0.2,0.3-0.2,0.3v4.3c0.2-0.1,0.3-0.6,0.4-1c0-0.4,0.1-0.7,0.3-1c0,0,0.1,0.2,0.2,0.2c0,0,0-0.1,0-0.4
		c0.1-0.5,0.5-0.9,0.7-1.1c0,0-0.3-0.2-0.4-0.5c0-0.2,0.1-0.7,0.4-0.9c0.4-0.3,0.5-0.6,0.2-0.8c0,0-0.2,0-0.1,0.3c0,0-0.3,0-0.2-0.2
		c0,0-0.2,0.1-0.4,0s-0.2-0.2-0.2-0.2s0.1,0,0.3,0c0.1,0,0.2-0.1,0.2-0.1s-0.2,0-0.3,0s-0.2,0.1-0.4,0c-0.1-0.1-0.3-0.4-0.3-0.6
		c0,0,0.1,0.1,0.4,0.1c0,0-0.2-0.2-0.3-0.5s-0.1-0.9,0.3-1.1c0,0-0.2,0.4,0.2,0.8l0.6,0.6c0,0,0-0.1,0.1-0.2c0,0,0,0.1,0.2,0.3
		c0.2,0.1,0.3,0.3,0.3,0.4v-1.8c0,0-0.1-0.2-0.2-0.3c0,0,0.1-0.2,0.3-0.2c0,0,0-0.1,0-0.2s-0.4-0.3-0.4-0.6c0-0.3,0.3-0.3,0.3-0.3
		s0-0.2,0-0.3c0-0.1-0.2-0.1-0.2-0.3c0-0.2,0.2-0.2,0.2-0.2v-0.7c0,0-0.1-0.3-0.3-0.5V19h0.4v-2.4l0.2-0.4H14l0.2,0.4V19h0.4v0.2
		c-0.2,0.2-0.3,0.5-0.3,0.5v0.7c0,0,0.2,0,0.2,0.2s-0.2,0.3-0.2,0.3c0,0.1,0,0.3,0,0.3s0.3,0,0.3,0.3s-0.4,0.5-0.4,0.6s0,0.2,0,0.2
		c0.2,0,0.3,0.2,0.3,0.2c-0.1,0-0.2,0.3-0.2,0.3V26c0.2-0.1,0.3-0.5,0.4-0.9c0-0.4,0.1-0.7,0.3-1c0,0,0.1,0.2,0.3,0.2
		c0,0,0-0.1,0-0.4c0.1-0.5,0.5-0.8,0.7-1c0,0-0.3-0.2-0.4-0.6c0-0.2,0.2-0.5,0.4-0.8c0.2-0.2,0.4-0.6,0.2-0.7c0,0-0.2,0-0.1,0.2
		c0,0-0.2,0-0.2-0.2c0,0-0.2,0.1-0.4,0s-0.2-0.2-0.2-0.2s0.1,0,0.2,0c0.1,0,0.2-0.1,0.2-0.1s-0.2,0-0.3,0s-0.2,0.1-0.3,0
		s-0.2-0.3-0.2-0.6c0,0,0.1,0.1,0.3,0.1c0,0-0.2-0.2-0.3-0.5s-0.1-0.8,0.3-1c0,0-0.1,0.4,0.2,0.7l0.6,0.6c0,0,0-0.1,0.1-0.2
		c0,0,0,0.2,0.2,0.3c0.1,0.1,0.2,0.2,0.3,0.3v-2c0,0-0.1-0.2-0.2-0.3c0,0,0.1-0.2,0.3-0.2c0,0,0-0.1,0-0.2s-0.4-0.3-0.4-0.6
		c0-0.3,0.3-0.3,0.3-0.3s0-0.2,0-0.3c0-0.1-0.2-0.1-0.2-0.3s0.2-0.2,0.2-0.2v-0.7c0,0-0.1-0.3-0.3-0.5v-0.2h0.4V12l0.2-0.4H17
		l0.2,0.4v2.4h0.4v0.2c-0.2,0.2-0.3,0.5-0.3,0.5v0.7c0,0,0.2,0,0.2,0.2s-0.2,0.3-0.2,0.3c0,0.1,0,0.3,0,0.3s0.3,0,0.3,0.3
		s-0.4,0.5-0.4,0.6s0,0.2,0,0.2c0.2,0,0.3,0.2,0.3,0.2c-0.1,0-0.2,0.3-0.2,0.3v3.6c0.2-0.1,0.3-0.5,0.4-0.9c0-0.4,0.1-0.7,0.3-1
		c0,0,0.1,0.2,0.3,0.2c0,0,0-0.1,0-0.4c0.1-0.5,0.7-0.7,0.7-0.9c0,0,0.1-0.2-0.2-0.2c-0.3-0.1-0.4-0.3-0.5-0.4
		c-0.1-0.3,0.2-0.6,0.2-0.6s0,0.2,0.2,0.2c0,0-0.2-0.2,0.1-0.4c0.3-0.2,0.3-0.3,0.3-0.3s0.1,0.1,0.1,0.2c0,0,0.1-0.1,0.1-0.2
		s-0.1-0.1-0.1-0.2s0.2-0.3,0.2-0.3v-1.8c0,0-0.1-0.2-0.2-0.3c0,0,0.1-0.2,0.3-0.2c0,0,0-0.1,0-0.2c0-0.1-0.4-0.3-0.4-0.6
		s0.3-0.3,0.3-0.3s0-0.2,0-0.3s-0.2-0.1-0.2-0.3s0.2-0.2,0.2-0.2v-0.7c0,0-0.1-0.3-0.3-0.5V11h0.4V8.7L20,8.3h0.1l0.2,0.4V11h0.4
		v0.2c-0.2,0.2-0.3,0.5-0.3,0.5v0.7c0,0,0.2,0,0.2,0.2s-0.2,0.3-0.2,0.3c0,0.1,0,0.3,0,0.3s0.3,0,0.3,0.3s-0.4,0.5-0.4,0.6
		s0,0.2,0,0.2c0.2,0,0.3,0.2,0.3,0.2c-0.1,0-0.2,0.3-0.2,0.3v1.8c0,0,0.2,0.2,0.2,0.3c0,0.1-0.1,0.2-0.1,0.2c0,0.1,0.1,0.2,0.1,0.2
		c0-0.2,0.1-0.2,0.1-0.2s0,0.1,0.3,0.3c0.3,0.2,0.1,0.4,0.1,0.4c0.2-0.1,0.2-0.2,0.2-0.2s0.2,0.2,0.2,0.6c0,0.2-0.2,0.4-0.5,0.4
		c-0.2,0.1-0.2,0.2-0.2,0.2c0,0.2,0.6,0.4,0.7,0.9c0,0.2,0,0.4,0,0.4c0.1-0.1,0.3-0.2,0.3-0.2c0.2,0.3,0.2,0.6,0.3,1
		c0,0.4,0.2,0.8,0.4,0.9v-3.6c0,0-0.1-0.2-0.2-0.3c0,0,0.1-0.2,0.3-0.2c0,0,0-0.1,0-0.2s-0.4-0.3-0.4-0.6c0-0.3,0.3-0.3,0.3-0.3
		s0-0.2,0-0.3c0-0.1-0.2-0.1-0.2-0.3s0.2-0.2,0.2-0.2v-0.7c0,0-0.1-0.3-0.3-0.5v-0.2h0.4V12l0.2-0.4H23l0.2,0.4v2.4h0.4v0.2
		c-0.2,0.2-0.3,0.5-0.3,0.5v0.7c0,0,0.2,0,0.2,0.2s-0.2,0.3-0.2,0.3c0,0.1,0,0.3,0,0.3s0.3,0,0.3,0.3s-0.4,0.5-0.4,0.6s0,0.2,0,0.2
		c0.2,0,0.3,0.2,0.3,0.2c-0.1,0-0.2,0.3-0.2,0.3v2c0.1-0.1,0.2-0.2,0.3-0.3c0.2-0.2,0.2-0.3,0.2-0.3c0.2,0.1,0.1,0.2,0.1,0.2
		l0.6-0.6c0.3-0.3,0.2-0.7,0.2-0.7c0.4,0.2,0.4,0.8,0.3,1c-0.1,0.3-0.3,0.5-0.3,0.5c0.2,0,0.3-0.1,0.3-0.1c0,0.2-0.1,0.5-0.2,0.6
		s-0.3,0-0.3,0c-0.1,0-0.3,0-0.3,0s0.1,0.1,0.2,0.1s0.2,0,0.2,0s-0.1,0.1-0.2,0.2c-0.2,0.1-0.4,0-0.4,0c0,0.2-0.2,0.2-0.2,0.2
		c0.1-0.2-0.1-0.2-0.1-0.2c-0.3,0.1,0,0.4,0.2,0.7c0.2,0.3,0.4,0.6,0.4,0.8c0,0.4-0.4,0.6-0.4,0.6c0.2,0.2,0.6,0.5,0.7,1
		c0,0.2,0,0.4,0,0.4c0.1-0.1,0.3-0.2,0.3-0.2c0.2,0.3,0.2,0.6,0.3,1c0,0.4,0.2,0.8,0.4,0.9v-3.6c0,0-0.1-0.2-0.2-0.3
		c0,0,0.1-0.2,0.3-0.2c0,0,0-0.1,0-0.2s-0.4-0.3-0.4-0.6c0-0.3,0.3-0.3,0.3-0.3s0-0.2,0-0.3c0-0.1-0.2-0.1-0.2-0.3
		c0-0.2,0.2-0.2,0.2-0.2v-0.7c0,0-0.1-0.3-0.3-0.5v-0.2h0.4v-2.4l0.2-0.4H26l0.2,0.4v2.4h0.4v0.2c-0.2,0.2-0.3,0.5-0.3,0.5V20
		c0,0,0.2,0,0.2,0.2s-0.2,0.3-0.2,0.3c0,0.1,0,0.3,0,0.3s0.3,0,0.3,0.3s-0.4,0.5-0.4,0.6s0,0.2,0,0.2c0.2,0,0.3,0.2,0.3,0.2
		c-0.1,0-0.2,0.3-0.2,0.3v1.8c0-0.1,0.2-0.2,0.3-0.4c0.2-0.2,0.2-0.3,0.2-0.3c0.1,0.1,0.1,0.2,0.1,0.2l0.6-0.6
		c0.4-0.4,0.2-0.8,0.2-0.8c0.4,0.2,0.4,0.8,0.3,1.1c-0.1,0.3-0.3,0.5-0.3,0.5c0.2,0,0.4-0.1,0.4-0.1c0,0.2-0.1,0.5-0.3,0.6
		c-0.1,0.1-0.3,0-0.4,0s-0.3,0-0.3,0s0.1,0.1,0.2,0.1s0.3,0,0.3,0s-0.1,0.1-0.2,0.2c-0.2,0.1-0.4,0-0.4,0c0,0.2-0.2,0.2-0.2,0.2
		c0.1-0.2-0.1-0.3-0.1-0.3c-0.3,0.2-0.1,0.5,0.2,0.8c0.3,0.2,0.4,0.6,0.4,0.9s-0.4,0.5-0.4,0.5c0.2,0.2,0.6,0.6,0.7,1.1
		c0,0.3,0,0.4,0,0.4c0.1-0.1,0.2-0.2,0.2-0.2c0.2,0.3,0.2,0.7,0.3,1c0,0.5,0.2,0.9,0.4,1v-4.3c0,0-0.1-0.2-0.2-0.3
		c0,0,0.1-0.2,0.3-0.2c0,0,0-0.1,0-0.2s-0.4-0.3-0.4-0.6c0-0.3,0.3-0.3,0.3-0.3s0-0.2,0-0.3c0-0.1-0.2-0.1-0.2-0.3
		c0-0.2,0.2-0.2,0.2-0.2v-0.7c0,0-0.1-0.3-0.3-0.5V22H29v-2l0.2-0.4h0.1l0.2,0.4v2.4h0.4v0.2c-0.2,0.2-0.3,0.5-0.3,0.5v0.7
		c0,0,0.2,0,0.2,0.2s-0.2,0.3-0.2,0.3c0,0.1,0,0.3,0,0.3s0.3,0,0.3,0.3s-0.4,0.5-0.4,0.6s0,0.2,0,0.2c0.2,0,0.3,0.2,0.3,0.2
		c-0.1,0-0.2,0.3-0.2,0.3v2.4c0.1-0.2,0.2-0.3,0.3-0.4c0.2-0.2,0.2-0.4,0.2-0.4c0.2,0.2,0.2,0.3,0.2,0.3l0.7-0.6
		c0.4-0.4,0.2-0.8,0.2-0.8c0.4,0.2,0.4,0.9,0.4,1.2c-0.1,0.3-0.3,0.5-0.3,0.5c0.2,0,0.4-0.1,0.4-0.1c0,0.3-0.1,0.5-0.3,0.6
		c-0.2,0.1-0.3,0-0.4,0s-0.3,0-0.3,0s0.1,0.1,0.2,0.1c0.1,0.1,0.3,0,0.3,0s-0.1,0.2-0.2,0.3c-0.2,0.1-0.4,0-0.4,0
		c0,0.2-0.2,0.2-0.2,0.2c0.1-0.2-0.1-0.3-0.1-0.3c-0.3,0.2-0.1,0.5,0.3,0.8s0.7,0.5,0.7,0.9c0,0.5-0.3,0.7-0.3,0.7h0.9v0.5
		c0.4,0,0.5,0.4,0.5,0.4c-0.6,0.3-0.6,1,0,1.6c0.4,0.3,0.7,0.8,0.7,0.8s0.8-17,0.8-19.3C33.8,10.8,30.5,9,27.3,7.5z M11.3,18.9
		c-0.3,0.2-0.5,0.3-0.5,0.4c0-0.1-0.2-0.2-0.5-0.4c-0.2-0.1-0.3-0.3-0.1-0.6c0.1-0.2,0.1-0.3,0.1-0.4c0,0,0.2,0.2,0.2,0.4
		c0,0,0.1,0,0.1-0.1s-0.2-0.2-0.1-0.4c0.1-0.2,0.3-0.5,0.3-0.7c0,0.2,0.2,0.5,0.3,0.7S11,18.1,11,18.2s0.1,0.1,0.1,0.1
		c0-0.2,0.2-0.4,0.2-0.4c0,0.1,0,0.2,0.1,0.4C11.7,18.6,11.5,18.8,11.3,18.9z M14.5,15.2c-0.3,0.2-0.5,0.3-0.5,0.4
		c0-0.1-0.2-0.2-0.5-0.4c-0.2-0.1-0.3-0.3-0.1-0.6c0.1-0.2,0.1-0.3,0.1-0.4c0,0,0.2,0.2,0.2,0.4c0,0,0.1,0,0.1-0.1s-0.2-0.2-0.1-0.4
		c0.1-0.2,0.3-0.5,0.3-0.7c0,0.2,0.2,0.5,0.3,0.7s-0.1,0.3-0.1,0.4c0,0.1,0.1,0.1,0.1,0.1c0-0.2,0.2-0.4,0.2-0.4
		c0,0.1,0,0.2,0.1,0.4C14.8,14.9,14.7,15.1,14.5,15.2z M17.6,11c-0.3,0.2-0.5,0.3-0.5,0.4c0-0.1-0.2-0.2-0.5-0.4
		c-0.2-0.1-0.3-0.3-0.1-0.6c0.1-0.2,0.1-0.3,0.1-0.4c0,0,0.2,0.2,0.2,0.4c0,0,0.1,0,0.1-0.1s-0.2-0.2-0.1-0.4s0.3-0.5,0.3-0.7
		c0,0.2,0.2,0.5,0.3,0.7c0.1,0.2-0.1,0.3-0.1,0.4c0,0.1,0.1,0.1,0.1,0.1c0-0.2,0.2-0.4,0.2-0.4c0,0.1,0,0.2,0.1,0.4
		C17.9,10.7,17.8,10.9,17.6,11z M20.5,7.6C20.2,7.7,20,7.8,20,7.9c0-0.1-0.2-0.2-0.5-0.4c-0.2-0.1-0.3-0.3-0.1-0.6
		c0.1-0.2,0.1-0.3,0.1-0.4c0,0,0.2,0.2,0.2,0.4c0,0,0.1,0,0.1-0.1s-0.2-0.2-0.1-0.4C19.8,6.2,20,5.9,20,5.8c0,0.2,0.2,0.5,0.3,0.7
		c0.1,0.2-0.1,0.3-0.1,0.4S20.3,7,20.3,7c0-0.2,0.2-0.4,0.2-0.4c0,0.1,0,0.2,0.1,0.4C20.9,7.2,20.7,7.5,20.5,7.6z M23.5,11
		c-0.3,0.2-0.5,0.3-0.5,0.4c0-0.1-0.2-0.2-0.5-0.4c-0.2-0.1-0.3-0.3-0.1-0.6c0.1-0.2,0.1-0.3,0.1-0.4c0,0,0.2,0.2,0.2,0.4
		c0,0,0.1,0,0.1-0.1s-0.2-0.2-0.1-0.4c0-0.2,0.3-0.6,0.3-0.7c0,0.2,0.2,0.5,0.3,0.7c0.1,0.2-0.1,0.3-0.1,0.4c0,0.1,0.1,0.1,0.1,0.1
		c0-0.2,0.2-0.4,0.2-0.4c0,0.1,0,0.2,0.1,0.4C23.8,10.7,23.7,10.9,23.5,11z M26.6,15.2c-0.3,0.2-0.5,0.3-0.5,0.4
		c0-0.1-0.2-0.2-0.5-0.4c-0.2-0.1-0.3-0.3-0.1-0.6c0.1-0.2,0.1-0.3,0.1-0.4c0,0,0.2,0.2,0.2,0.4c0,0,0.1,0,0.1-0.1s-0.2-0.2-0.1-0.4
		s0.3-0.5,0.3-0.7c0,0.2,0.2,0.5,0.3,0.7c0.1,0.2-0.1,0.3-0.1,0.4c0,0.1,0.1,0.1,0.1,0.1c0-0.2,0.2-0.4,0.2-0.4c0,0.1,0,0.2,0.1,0.4
		C26.9,14.9,26.8,15.1,26.6,15.2z M29.7,18.9c-0.3,0.2-0.5,0.3-0.5,0.4c0-0.1-0.2-0.2-0.5-0.4c-0.2-0.1-0.3-0.3-0.1-0.6
		c0.1-0.2,0.1-0.3,0.1-0.4c0,0,0.2,0.2,0.2,0.4c0,0,0.1,0,0.1-0.1s-0.2-0.2-0.1-0.4c0.1-0.2,0.3-0.5,0.3-0.7c0,0.2,0.2,0.5,0.3,0.7
		c0.1,0.2-0.1,0.3-0.1,0.4s0.1,0.1,0.1,0.1c0-0.2,0.2-0.4,0.2-0.4c0,0.1,0,0.2,0.1,0.4C30.1,18.6,29.9,18.8,29.7,18.9z"/>
</g>
<g>
	<path class="st0" d="M58.1,16.1c0-0.3,0-0.6-0.1-0.8c-0.1-0.3-0.2-0.5-0.3-0.6c-0.1-0.2-0.3-0.3-0.5-0.4c-0.2-0.1-0.4-0.1-0.7-0.1
		c-0.5,0-0.8,0.1-1.1,0.4C55.2,14.7,55,15,55,15.5c0,0.2,0.1,0.5,0.2,0.7c0.1,0.2,0.3,0.4,0.5,0.6s0.5,0.4,0.9,0.6
		c0.3,0.2,0.7,0.4,1.2,0.6c0.3,0.1,0.5,0.3,0.7,0.4s0.5,0.3,0.7,0.4c0.2,0.2,0.4,0.3,0.6,0.5c0.2,0.2,0.3,0.4,0.5,0.6
		c0.1,0.2,0.2,0.5,0.3,0.8s0.1,0.6,0.1,1c0,0.6-0.1,1.2-0.3,1.7s-0.4,0.9-0.8,1.3c-0.3,0.4-0.8,0.6-1.3,0.8
		c-0.5,0.2-1.1,0.3-1.9,0.3c-0.6,0-1.1-0.1-1.7-0.3c-0.5-0.2-1-0.4-1.3-0.8s-0.6-0.8-0.8-1.3s-0.2-1.2-0.2-1.9h2.3
		c0,0.3,0,0.5,0,0.8s0.1,0.5,0.3,0.8c0.1,0.2,0.3,0.4,0.5,0.6c0.2,0.1,0.5,0.2,0.8,0.2s0.5,0,0.8-0.1c0.2-0.1,0.4-0.2,0.6-0.4
		c0.2-0.2,0.3-0.4,0.4-0.6c0.1-0.3,0.1-0.6,0.1-0.9S58.1,21.3,58,21s-0.3-0.5-0.6-0.7c-0.2-0.2-0.5-0.4-0.8-0.5
		c-0.3-0.2-0.6-0.3-1-0.5c-0.5-0.2-0.9-0.4-1.3-0.7c-0.4-0.2-0.7-0.5-1-0.8s-0.5-0.6-0.6-1s-0.2-0.8-0.2-1.4c0-0.5,0.1-1,0.3-1.5
		c0.2-0.4,0.5-0.8,0.8-1.1s0.8-0.5,1.2-0.7s0.9-0.2,1.4-0.2c1.3,0,2.3,0.3,2.9,1c0.6,0.7,0.9,1.7,0.9,3h-1.9
		C58.1,15.9,58.1,16.1,58.1,16.1z"/>
	<path class="st0" d="M67.8,16.9h-5.2v-2.8h2v1h3.2V16.9z M67.8,23.8h-5.2V21h2v1h3.2V23.8z"/>
	<path class="st0" d="M74.5,25.8c-0.6,0-1.2-0.1-1.8-0.2c-0.6-0.2-1.1-0.4-1.5-0.7c-0.4-0.3-0.8-0.7-1-1.1c-0.3-0.4-0.4-1-0.4-1.6
		v-9.9h2.3v9.5c0,0.3,0.1,0.6,0.2,0.9s0.3,0.5,0.5,0.6c0.2,0.2,0.5,0.3,0.7,0.4c0.3,0.1,0.6,0.1,1,0.1c0.3,0,0.7,0,0.9-0.1
		c0.3-0.1,0.5-0.2,0.7-0.4c0.2-0.2,0.4-0.4,0.5-0.6c0.1-0.3,0.2-0.5,0.2-0.9v-9.5h2.3v9.9c0,0.6-0.1,1.1-0.4,1.6
		c-0.2,0.4-0.6,0.8-1,1.1c-0.4,0.3-0.9,0.5-1.5,0.7C75.7,25.7,75.1,25.8,74.5,25.8z"/>
	<path class="st0" d="M86.1,25.8c-0.6,0-1.2-0.1-1.8-0.2c-0.6-0.2-1.1-0.4-1.5-0.7c-0.4-0.3-0.8-0.7-1-1.1c-0.3-0.4-0.4-1-0.4-1.6
		v-9.9h2.3v9.5c0,0.3,0.1,0.6,0.2,0.9s0.3,0.5,0.5,0.6c0.2,0.2,0.5,0.3,0.7,0.4c0.3,0.1,0.6,0.1,1,0.1s0.7,0,0.9-0.1
		c0.3-0.1,0.5-0.2,0.7-0.4c0.2-0.2,0.4-0.4,0.5-0.6c0.1-0.3,0.2-0.5,0.2-0.9v-9.5h2.3v9.9c0,0.6-0.1,1.1-0.4,1.6
		c-0.2,0.4-0.6,0.8-1,1.1s-0.9,0.5-1.5,0.7C87.3,25.7,86.8,25.8,86.1,25.8z"/>
	<path class="st0" d="M97.8,25.8c-0.6,0-1.2-0.1-1.8-0.2c-0.6-0.2-1.1-0.4-1.5-0.7s-0.8-0.7-1-1.1c-0.3-0.4-0.4-1-0.4-1.6v-9.9h2.3
		v9.5c0,0.3,0.1,0.6,0.2,0.9s0.3,0.5,0.5,0.6c0.2,0.2,0.5,0.3,0.7,0.4c0.3,0.1,0.6,0.1,1,0.1s0.7,0,0.9-0.1c0.3-0.1,0.5-0.2,0.7-0.4
		c0.2-0.2,0.4-0.4,0.5-0.6c0.1-0.3,0.2-0.5,0.2-0.9v-9.5h2.3v9.9c0,0.6-0.1,1.1-0.4,1.6c-0.2,0.4-0.6,0.8-1,1.1s-0.9,0.5-1.5,0.7
		C99,25.7,98.4,25.8,97.8,25.8z"/>
	<path class="st0" d="M109.7,16.1c0-0.3,0-0.6-0.1-0.8c-0.1-0.3-0.2-0.5-0.3-0.6c-0.1-0.2-0.3-0.3-0.5-0.4c-0.2-0.1-0.4-0.1-0.7-0.1
		c-0.5,0-0.8,0.1-1.1,0.4c-0.3,0.2-0.4,0.6-0.4,1.1c0,0.2,0.1,0.5,0.2,0.7c0.1,0.2,0.3,0.4,0.5,0.6s0.5,0.4,0.9,0.6
		c0.3,0.2,0.7,0.4,1.2,0.6c0.3,0.1,0.5,0.3,0.7,0.4s0.5,0.3,0.7,0.4c0.2,0.2,0.4,0.3,0.6,0.5s0.3,0.4,0.5,0.6
		c0.1,0.2,0.2,0.5,0.3,0.8s0.1,0.6,0.1,1c0,0.6-0.1,1.2-0.3,1.7c-0.2,0.5-0.4,0.9-0.8,1.3c-0.3,0.4-0.8,0.6-1.3,0.8
		c-0.5,0.2-1.1,0.3-1.9,0.3c-0.6,0-1.1-0.1-1.7-0.3c-0.5-0.2-1-0.4-1.3-0.8c-0.4-0.4-0.6-0.8-0.8-1.3c-0.2-0.5-0.2-1.2-0.2-1.9h2.3
		c0,0.3,0,0.5,0,0.8s0.1,0.5,0.3,0.8c0.1,0.2,0.3,0.4,0.5,0.6c0.2,0.1,0.5,0.2,0.8,0.2s0.5,0,0.8-0.1c0.2-0.1,0.4-0.2,0.6-0.4
		c0.2-0.2,0.3-0.4,0.4-0.6c0.1-0.3,0.1-0.6,0.1-0.9s-0.1-0.6-0.2-0.9s-0.3-0.5-0.6-0.7c-0.2-0.2-0.5-0.4-0.8-0.5
		c-0.3-0.2-0.6-0.3-1-0.5c-0.5-0.2-0.9-0.4-1.3-0.7c-0.4-0.2-0.7-0.5-1-0.8s-0.5-0.6-0.6-1s-0.2-0.8-0.2-1.4c0-0.5,0.1-1,0.3-1.5
		c0.2-0.4,0.5-0.8,0.8-1.1s0.8-0.5,1.2-0.7s0.9-0.2,1.4-0.2c1.3,0,2.3,0.3,2.9,1s0.9,1.7,0.9,3H109.7z"/>
	<path class="st0" d="M104.5,8.6h7.4v1.9h-8.4L104.5,8.6z"/>
	<path class="st0" d="M119,12.1c0.4,0,0.8,0,1.2,0.1c0.4,0.1,0.8,0.2,1.1,0.3c0.4,0.1,0.7,0.3,1,0.5s0.6,0.4,0.8,0.7
		c0.2,0.3,0.4,0.6,0.5,0.9c0.1,0.3,0.2,0.7,0.2,1.1v9.9h-2.3v-9.5c0-0.3-0.1-0.6-0.2-0.9c-0.1-0.3-0.3-0.5-0.5-0.7s-0.5-0.3-0.8-0.4
		c-0.3-0.1-0.6-0.1-1-0.1c-0.3,0-0.6,0-0.9,0.1s-0.5,0.1-0.8,0.2c-0.2,0.1-0.4,0.2-0.6,0.3s-0.3,0.3-0.4,0.4
		c0.1,0.1,0.1,0.2,0.2,0.3s0.1,0.3,0.1,0.4c0,0.1,0.1,0.3,0.1,0.4s0,0.3,0,0.4v8.9h-2.3v-9c0-0.3-0.1-0.6-0.2-0.8s-0.3-0.4-0.6-0.5
		c0.3-0.5,0.6-1,1-1.4s0.8-0.7,1.2-1c0.5-0.3,0.9-0.5,1.5-0.6C117.9,12.2,118.4,12.1,119,12.1z"/>
	<path class="st0" d="M125.2,16c0-0.6,0.1-1.2,0.3-1.7c0.2-0.5,0.5-0.9,0.9-1.2s0.8-0.6,1.3-0.7c0.5-0.2,1-0.2,1.5-0.2
		s1,0.1,1.5,0.2c0.5,0.2,0.9,0.4,1.3,0.7c0.4,0.3,0.7,0.7,0.9,1.1c0.2,0.4,0.4,1,0.4,1.6v9.9H131v-9.6c0-0.3,0-0.6-0.1-0.9
		c-0.1-0.3-0.2-0.5-0.4-0.6c-0.2-0.2-0.3-0.3-0.5-0.4c-0.2-0.1-0.5-0.1-0.7-0.1s-0.5,0-0.7,0.1s-0.4,0.2-0.6,0.4
		c-0.2,0.2-0.3,0.4-0.4,0.6c-0.1,0.2-0.2,0.5-0.2,0.8H125.2z"/>
	<path class="st0" d="M140.5,16.1c0-0.3,0-0.6-0.1-0.8c-0.1-0.3-0.2-0.5-0.3-0.6s-0.3-0.3-0.5-0.4c-0.2-0.1-0.4-0.1-0.7-0.1
		c-0.5,0-0.8,0.1-1.1,0.4c-0.3,0.2-0.4,0.6-0.4,1.1c0,0.2,0.1,0.5,0.2,0.7c0.1,0.2,0.3,0.4,0.5,0.6s0.5,0.4,0.9,0.6
		c0.3,0.2,0.7,0.4,1.2,0.6c0.3,0.1,0.5,0.3,0.7,0.4s0.5,0.3,0.7,0.4c0.2,0.2,0.4,0.3,0.6,0.5c0.2,0.2,0.3,0.4,0.5,0.6
		c0.1,0.2,0.2,0.5,0.3,0.8s0.1,0.6,0.1,1c0,0.6-0.1,1.2-0.3,1.7s-0.4,0.9-0.8,1.3c-0.3,0.4-0.8,0.6-1.3,0.8
		c-0.5,0.2-1.1,0.3-1.9,0.3c-0.6,0-1.1-0.1-1.7-0.3c-0.5-0.2-1-0.4-1.3-0.8c-0.4-0.4-0.6-0.8-0.8-1.3s-0.2-1.2-0.2-1.9h2.3
		c0,0.3,0,0.5,0,0.8s0.1,0.5,0.3,0.8c0.1,0.2,0.3,0.4,0.5,0.6c0.2,0.1,0.5,0.2,0.8,0.2s0.5,0,0.8-0.1c0.2-0.1,0.4-0.2,0.6-0.4
		c0.2-0.2,0.3-0.4,0.4-0.6c0.1-0.3,0.1-0.6,0.1-0.9s-0.1-0.6-0.2-0.9c-0.1-0.3-0.3-0.5-0.6-0.7c-0.2-0.2-0.5-0.4-0.8-0.5
		c-0.3-0.2-0.6-0.3-1-0.5c-0.5-0.2-0.9-0.4-1.3-0.7s-0.7-0.5-1-0.8s-0.5-0.6-0.6-1s-0.2-0.8-0.2-1.4c0-0.5,0.1-1,0.3-1.5
		c0.2-0.4,0.5-0.8,0.8-1.1s0.8-0.5,1.2-0.7c0.5-0.1,0.9-0.2,1.4-0.2c1.3,0,2.3,0.3,2.9,1c0.6,0.7,0.9,1.7,0.9,3H140.5z"/>
	<path class="st0" d="M149.8,12.1c0.4,0,0.8,0,1.2,0.1s0.8,0.2,1.1,0.3c0.4,0.1,0.7,0.3,1,0.5s0.6,0.4,0.8,0.7s0.4,0.6,0.5,0.9
		c0.1,0.3,0.2,0.7,0.2,1.1v9.9h-2.3v-9.5c0-0.3-0.1-0.6-0.2-0.9c-0.1-0.3-0.3-0.5-0.5-0.7s-0.5-0.3-0.8-0.4c-0.3-0.1-0.6-0.1-1-0.1
		c-0.3,0-0.6,0-0.9,0.1c-0.3,0.1-0.5,0.1-0.8,0.2c-0.2,0.1-0.4,0.2-0.6,0.3c-0.2,0.1-0.3,0.3-0.4,0.4c0.1,0.1,0.1,0.2,0.2,0.3
		c0.1,0.1,0.1,0.3,0.1,0.4c0,0.1,0.1,0.3,0.1,0.4s0,0.3,0,0.4v8.9h-2.3v-9c0-0.3-0.1-0.6-0.2-0.8c-0.1-0.2-0.3-0.4-0.6-0.5
		c0.3-0.5,0.6-1,1-1.4s0.8-0.7,1.2-1c0.5-0.3,0.9-0.5,1.5-0.6C148.6,12.2,149.2,12.1,149.8,12.1z"/>
	<path class="st0" d="M155.9,16c0-0.6,0.1-1.2,0.3-1.7s0.5-0.9,0.9-1.2s0.8-0.6,1.3-0.7c0.5-0.2,1-0.2,1.5-0.2s1,0.1,1.5,0.2
		c0.5,0.2,0.9,0.4,1.3,0.7c0.4,0.3,0.7,0.7,0.9,1.1c0.2,0.4,0.4,1,0.4,1.6v9.9h-2.3v-9.6c0-0.3,0-0.6-0.1-0.9
		c-0.1-0.3-0.2-0.5-0.4-0.6c-0.2-0.2-0.3-0.3-0.5-0.4c-0.2-0.1-0.5-0.1-0.7-0.1s-0.5,0-0.7,0.1s-0.4,0.2-0.6,0.4
		c-0.2,0.2-0.3,0.4-0.4,0.6c-0.1,0.2-0.2,0.5-0.2,0.8H155.9z"/>
	<path class="st0" d="M171.3,16.1c0-0.3,0-0.6-0.1-0.8c-0.1-0.3-0.2-0.5-0.3-0.6s-0.3-0.3-0.5-0.4c-0.2-0.1-0.4-0.1-0.7-0.1
		c-0.5,0-0.8,0.1-1.1,0.4c-0.3,0.2-0.4,0.6-0.4,1.1c0,0.2,0.1,0.5,0.2,0.7c0.1,0.2,0.3,0.4,0.5,0.6s0.5,0.4,0.9,0.6
		c0.3,0.2,0.7,0.4,1.2,0.6c0.3,0.1,0.5,0.3,0.7,0.4s0.5,0.3,0.7,0.4c0.2,0.2,0.4,0.3,0.6,0.5s0.3,0.4,0.5,0.6
		c0.1,0.2,0.2,0.5,0.3,0.8s0.1,0.6,0.1,1c0,0.6-0.1,1.2-0.3,1.7s-0.4,0.9-0.8,1.3c-0.3,0.4-0.8,0.6-1.3,0.8
		c-0.5,0.2-1.1,0.3-1.9,0.3c-0.6,0-1.1-0.1-1.7-0.3c-0.5-0.2-1-0.4-1.3-0.8s-0.6-0.8-0.8-1.3s-0.2-1.2-0.2-1.9h2.3
		c0,0.3,0,0.5,0,0.8s0.1,0.5,0.3,0.8c0.1,0.2,0.3,0.4,0.5,0.6c0.2,0.1,0.5,0.2,0.8,0.2s0.5,0,0.8-0.1c0.2-0.1,0.4-0.2,0.6-0.4
		c0.2-0.2,0.3-0.4,0.4-0.6c0.1-0.3,0.1-0.6,0.1-0.9s-0.1-0.6-0.2-0.9c-0.1-0.3-0.3-0.5-0.6-0.7c-0.2-0.2-0.5-0.4-0.8-0.5
		c-0.3-0.2-0.6-0.3-1-0.5c-0.5-0.2-0.9-0.4-1.3-0.7s-0.7-0.5-1-0.8s-0.5-0.6-0.6-1s-0.2-0.8-0.2-1.4c0-0.5,0.1-1,0.3-1.5
		c0.2-0.4,0.5-0.8,0.8-1.1s0.8-0.5,1.2-0.7c0.5-0.1,0.9-0.2,1.4-0.2c1.3,0,2.3,0.3,2.9,1c0.6,0.7,0.9,1.7,0.9,3H171.3z"/>
	<path class="st0" d="M178.2,25.7h-2.3v-9.8c0-0.6,0.1-1.1,0.4-1.6c0.2-0.5,0.6-0.9,1-1.2s0.9-0.6,1.5-0.7c0.6-0.2,1.2-0.2,1.9-0.2
		c0.4,0,0.8,0,1.2,0.1s0.7,0.2,1.1,0.3c0.2,0,0.4-0.1,0.5-0.2c0.1-0.1,0.3-0.2,0.3-0.3c0.1-0.1,0.2-0.3,0.2-0.4
		c0-0.1,0.1-0.2,0.1-0.3h2.4c0,0.2,0,0.5-0.1,0.7s-0.2,0.5-0.3,0.7s-0.3,0.4-0.6,0.6s-0.5,0.3-0.8,0.4c0.2,0.3,0.4,0.6,0.5,1
		c0.1,0.3,0.2,0.7,0.2,1.1v9.8H183v-9.3c0-0.3,0-0.6-0.1-0.9c-0.1-0.3-0.2-0.5-0.4-0.7s-0.4-0.4-0.7-0.5s-0.7-0.2-1.1-0.2
		c-0.5,0-0.8,0.1-1.1,0.2c-0.3,0.1-0.6,0.3-0.7,0.5c-0.2,0.2-0.3,0.4-0.4,0.7c-0.1,0.3-0.1,0.6-0.1,0.9V19c0.2-0.3,0.4-0.5,0.6-0.7
		c0.2-0.2,0.5-0.3,0.7-0.4c0.3-0.1,0.6-0.2,0.9-0.2c0.3,0,0.7,0,1.1,0v2.1c-0.5-0.1-1-0.1-1.5,0c-0.4,0.1-0.8,0.2-1.1,0.5
		c-0.3,0.2-0.5,0.5-0.7,0.9c-0.1,0.4-0.2,0.8-0.2,1.2V25.7z"/>
	<path class="st0" d="M176.9,8.6h4.8l0,0c0,0,0,0,0-0.1c0-0.3,0.1-0.5,0.2-0.8c0.1-0.2,0.3-0.5,0.4-0.7c0.2-0.2,0.4-0.3,0.6-0.4
		c0.2-0.1,0.5-0.2,0.8-0.2s0.5,0.1,0.8,0.2c0.2,0.1,0.5,0.3,0.7,0.4c0.2,0.2,0.3,0.4,0.4,0.7c0.1,0.2,0.2,0.5,0.2,0.8
		s-0.1,0.5-0.2,0.8c-0.1,0.2-0.3,0.5-0.4,0.6c-0.2,0.2-0.4,0.3-0.7,0.4c-0.2,0.1-0.5,0.2-0.8,0.2H176L176.9,8.6z M182.9,8.5
		c0,0.2,0.1,0.3,0.2,0.5c0.1,0.1,0.3,0.2,0.5,0.2s0.3-0.1,0.5-0.2c0.1-0.1,0.2-0.3,0.2-0.5s-0.1-0.3-0.2-0.5
		c-0.1-0.1-0.3-0.2-0.5-0.2s-0.3,0.1-0.5,0.2C183,8.2,182.9,8.3,182.9,8.5z"/>
	<path class="st0" d="M192.4,12.1c0.4,0,0.8,0,1.2,0.1s0.8,0.2,1.1,0.3c0.4,0.1,0.7,0.3,1,0.5s0.6,0.4,0.8,0.7s0.4,0.6,0.5,0.9
		c0.1,0.3,0.2,0.7,0.2,1.1v9.9h-2.3v-9.5c0-0.3-0.1-0.6-0.2-0.9c-0.1-0.3-0.3-0.5-0.5-0.7s-0.5-0.3-0.8-0.4c-0.3-0.1-0.6-0.1-1-0.1
		c-0.3,0-0.6,0-0.9,0.1c-0.3,0.1-0.5,0.1-0.8,0.2c-0.2,0.1-0.4,0.2-0.6,0.3c-0.2,0.1-0.3,0.3-0.4,0.4c0.1,0.1,0.1,0.2,0.2,0.3
		c0.1,0.1,0.1,0.3,0.1,0.4c0,0.1,0.1,0.3,0.1,0.4s0,0.3,0,0.4v8.9h-2.3v-9c0-0.3-0.1-0.6-0.2-0.8c-0.1-0.2-0.3-0.4-0.6-0.5
		c0.3-0.5,0.6-1,1-1.4s0.8-0.7,1.2-1c0.5-0.3,0.9-0.5,1.5-0.6C191.2,12.2,191.8,12.1,192.4,12.1z"/>
	<path class="st0" d="M208.8,22.2c0,0.4-0.1,0.8-0.2,1.1c-0.1,0.3-0.3,0.6-0.5,0.9s-0.5,0.5-0.8,0.7s-0.6,0.4-1,0.5
		c-0.3,0.1-0.7,0.2-1.1,0.3c-0.4,0.1-0.7,0.1-1.1,0.1c-0.4,0-0.7,0-1.1-0.1c-0.4-0.1-0.7-0.2-1.1-0.3c-0.3-0.1-0.7-0.3-1-0.5
		s-0.6-0.4-0.8-0.7c-0.2-0.3-0.4-0.6-0.5-0.9s-0.2-0.7-0.2-1.1v-10h2.3v9.5c0,0.3,0.1,0.6,0.2,0.9c0.1,0.3,0.3,0.5,0.5,0.6
		c0.2,0.2,0.5,0.3,0.8,0.4s0.6,0.1,1,0.1c0.3,0,0.6,0,0.9-0.1c0.3-0.1,0.5-0.2,0.7-0.4c0.2-0.2,0.4-0.4,0.5-0.6
		c0.1-0.3,0.2-0.5,0.2-0.9v-2.3h-3.4v-3h2.1v1.1h1.3v-5.3h2.3v5.3h1.2v1.9h-1.2L208.8,22.2L208.8,22.2z"/>
	<path class="st0" d="M210.2,16c0-0.6,0.1-1.2,0.3-1.7s0.5-0.9,0.9-1.2s0.8-0.6,1.3-0.7c0.5-0.2,1-0.2,1.5-0.2s1,0.1,1.5,0.2
		c0.5,0.2,0.9,0.4,1.3,0.7c0.4,0.3,0.7,0.7,0.9,1.1c0.2,0.4,0.4,1,0.4,1.6v9.9H216v-9.6c0-0.3,0-0.6-0.1-0.9
		c-0.1-0.3-0.2-0.5-0.4-0.6c-0.2-0.2-0.3-0.3-0.5-0.4c-0.2-0.1-0.5-0.1-0.7-0.1s-0.5,0-0.7,0.1s-0.4,0.2-0.6,0.4
		c-0.2,0.2-0.3,0.4-0.4,0.6c-0.1,0.2-0.2,0.5-0.2,0.8H210.2z"/>
</g>
<g>
	<path class="st2" d="M52.9,38.2h1.4v6.5c0,0.1,0,0.2,0,0.4c0,0.1,0,0.2,0.1,0.4c0,0.1,0.1,0.2,0.2,0.4c0.1,0.1,0.2,0.2,0.3,0.3
		s0.3,0.2,0.5,0.2c0.2,0.1,0.4,0.1,0.7,0.1s0.5,0,0.7-0.1s0.3-0.1,0.5-0.2c0.1-0.1,0.2-0.2,0.3-0.3s0.1-0.2,0.2-0.4
		c0-0.1,0.1-0.2,0.1-0.4c0-0.1,0-0.2,0-0.4v-6.5h1.4V45c0,0.4-0.1,0.8-0.2,1.1c-0.1,0.3-0.4,0.6-0.6,0.8c-0.3,0.2-0.6,0.4-1,0.5
		s-0.8,0.2-1.3,0.2s-0.9-0.1-1.3-0.2c-0.4-0.1-0.7-0.3-1-0.5s-0.5-0.5-0.6-0.8s-0.2-0.7-0.2-1.1v-6.8H52.9z"/>
	<path class="st2" d="M65.7,38.2h1.4v9.2h-2l-2.8-7.1L62.2,40v0.4v7.1h-1.4v-9.2h2l2.8,7.2l0.1,0.4v-0.3V38.2z"/>
	<path class="st2" d="M69.1,47.5v-9.2h1.4v9.2H69.1z"/>
	<path class="st2" d="M77.4,38.2h1.5L76,47.4h-1.6l-2.8-9.2h1.5l2,7.1l0.1,0.6l0.1-0.6L77.4,38.2z"/>
	<path class="st2" d="M79.8,47.5v-9.2H85v1.2h-3.9v2.7h3.6v1.2h-3.6v3H85v1.2h-5.2V47.5z"/>
	<path class="st2" d="M87.7,47.5h-1.4v-9.2H89c0.4,0,0.7,0,1,0s0.6,0.1,0.8,0.2c0.3,0.1,0.5,0.2,0.7,0.3s0.4,0.3,0.5,0.5
		s0.2,0.4,0.3,0.7c0.1,0.3,0.1,0.6,0.1,0.9c0,0.5-0.1,0.9-0.3,1.2c-0.2,0.3-0.5,0.6-1,0.8c0.2,0.1,0.4,0.1,0.5,0.2
		c0.1,0.1,0.3,0.2,0.3,0.3c0.1,0.1,0.2,0.3,0.2,0.5s0.1,0.4,0.1,0.7c0,0.2,0,0.5,0,0.7s0,0.4,0,0.5c0,0.2,0,0.3,0.1,0.4
		c0,0.1,0.1,0.3,0.1,0.4c0,0.1,0.1,0.3,0.2,0.4c0.1,0.1,0.1,0.3,0.2,0.5h-1.6c0-0.1-0.1-0.2-0.1-0.4c0-0.1-0.1-0.3-0.1-0.4
		c0-0.2-0.1-0.3-0.1-0.5s0-0.3-0.1-0.5c0-0.1,0-0.3,0-0.4c0-0.1,0-0.2,0-0.3c0-0.2,0-0.4-0.1-0.6c0-0.2-0.1-0.3-0.2-0.5
		c-0.1-0.1-0.3-0.2-0.5-0.3s-0.4-0.1-0.7-0.1h-1.8v4C87.5,47.5,87.7,47.5,87.7,47.5z M87.7,42.4h1.6c0.1,0,0.2,0,0.3,0
		c0.1,0,0.2,0,0.4-0.1s0.3-0.1,0.4-0.2c0.1-0.1,0.2-0.2,0.3-0.3c0.1-0.1,0.2-0.3,0.2-0.4S91,41,91,40.8s0-0.4-0.1-0.6
		c-0.1-0.2-0.2-0.3-0.3-0.4c-0.1-0.1-0.2-0.2-0.4-0.2c-0.1-0.1-0.3-0.1-0.4-0.1s-0.3,0-0.4-0.1c-0.1,0-0.3,0-0.4,0h-1.4v3H87.7z"/>
	<path class="st2" d="M98.4,40.9c0-0.2,0-0.4-0.1-0.6c-0.1-0.2-0.1-0.4-0.3-0.5c-0.1-0.1-0.3-0.3-0.5-0.3c-0.2-0.1-0.4-0.1-0.7-0.1
		c-0.3,0-0.6,0-0.8,0.1c-0.2,0.1-0.4,0.2-0.5,0.3s-0.2,0.3-0.2,0.4c0,0.2-0.1,0.3-0.1,0.5c0,0.1,0,0.3,0.1,0.4s0.1,0.2,0.2,0.3
		s0.2,0.2,0.3,0.2c0.1,0.1,0.2,0.1,0.4,0.2l1.8,0.9c0.3,0.1,0.6,0.3,0.8,0.5c0.2,0.2,0.5,0.3,0.6,0.5c0.2,0.2,0.3,0.4,0.4,0.6
		c0.1,0.2,0.1,0.5,0.1,0.8c0,0.4-0.1,0.8-0.2,1.2c-0.1,0.3-0.4,0.6-0.6,0.8c-0.3,0.2-0.6,0.4-1,0.5s-0.8,0.2-1.3,0.2
		c-0.6,0-1-0.1-1.4-0.2c-0.4-0.1-0.7-0.3-1-0.6c-0.2-0.3-0.4-0.6-0.5-1s-0.2-0.9-0.2-1.5H95c0,0.3,0,0.6,0.1,0.9
		c0,0.3,0.1,0.5,0.3,0.7c0.1,0.2,0.3,0.3,0.5,0.4c0.2,0.1,0.5,0.2,0.9,0.2c0.2,0,0.5,0,0.7-0.1s0.4-0.1,0.6-0.2
		c0.2-0.1,0.3-0.3,0.4-0.4c0.1-0.2,0.1-0.4,0.1-0.6c0-0.2,0-0.4-0.1-0.5s-0.1-0.3-0.2-0.3S98.1,44,98,43.9s-0.3-0.1-0.4-0.2l-2.2-1
		c-0.2-0.1-0.5-0.2-0.6-0.4c-0.2-0.1-0.3-0.3-0.5-0.5c-0.1-0.2-0.2-0.4-0.3-0.6c0-0.2,0-0.4,0-0.7c0-0.4,0.1-0.7,0.2-1
		s0.3-0.6,0.6-0.8c0.2-0.2,0.5-0.4,0.9-0.5s0.7-0.2,1.2-0.2s0.9,0.1,1.3,0.2c0.4,0.1,0.7,0.3,1,0.5s0.5,0.5,0.6,0.9s0.2,0.8,0.1,1.2
		L98.4,40.9L98.4,40.9z"/>
	<path class="st2" d="M101.7,47.5v-9.2h1.4v9.2H101.7z"/>
	<path class="st2" d="M104.2,38.2h6.3v1.2H108v8.1h-1.4v-8.1h-2.5L104.2,38.2L104.2,38.2z"/>
	<path class="st2" d="M114.3,42.5l2.2-4.3h1.5l-3,5.7v3.5h-1.4v-3.5l-3-5.7h1.5L114.3,42.5z"/>
	<path class="st2" d="M121.8,42.7c0-0.4,0-0.7,0-1.1c0-0.4,0.1-0.7,0.2-1.1c0.1-0.4,0.2-0.7,0.4-1c0.2-0.3,0.4-0.6,0.6-0.8
		c0.3-0.2,0.6-0.4,0.9-0.6c0.4-0.1,0.8-0.2,1.3-0.2s0.9,0.1,1.3,0.2s0.7,0.3,0.9,0.6c0.2,0.2,0.4,0.5,0.6,0.8c0.1,0.3,0.3,0.6,0.3,1
		c0.1,0.4,0.1,0.7,0.2,1.1s0,0.8,0,1.1c0,0.4,0,0.9,0,1.3s-0.1,0.8-0.2,1.2c-0.1,0.4-0.2,0.7-0.4,1c-0.2,0.3-0.4,0.6-0.6,0.8
		s-0.5,0.4-0.9,0.5s-0.8,0.2-1.3,0.2s-0.9-0.1-1.3-0.2c-0.4-0.1-0.7-0.3-0.9-0.5c-0.2-0.2-0.4-0.5-0.6-0.8s-0.3-0.7-0.4-1
		c-0.1-0.4-0.1-0.8-0.2-1.2S121.8,43.1,121.8,42.7z M127.1,42.7c0-0.3,0-0.6,0-1c0-0.3-0.1-0.6-0.1-0.9c-0.1-0.3-0.1-0.5-0.2-0.7
		s-0.2-0.4-0.4-0.6c-0.1-0.2-0.3-0.3-0.5-0.4c-0.2-0.1-0.4-0.1-0.7-0.1c-0.3,0-0.5,0-0.7,0.1s-0.4,0.2-0.5,0.4s-0.3,0.3-0.4,0.6
		c-0.1,0.2-0.2,0.5-0.2,0.7c-0.1,0.3-0.1,0.6-0.1,0.9c0,0.3,0,0.6,0,1c0,0.6,0,1.2,0.1,1.7c0,0.5,0.1,0.9,0.3,1.2
		c0.1,0.3,0.3,0.6,0.6,0.7c0.3,0.2,0.6,0.2,1,0.2s0.7-0.1,1-0.2c0.3-0.2,0.4-0.4,0.6-0.7c0.1-0.3,0.2-0.7,0.3-1.2
		C127.1,43.9,127.1,43.4,127.1,42.7z"/>
	<path class="st2" d="M130,47.5v-9.2h4.9v1.2h-3.6V42h3.3v1.2h-3.3v4.2L130,47.5L130,47.5z"/>
	<path class="st2" d="M139.2,47.5v-9.2h2.8c0.3,0,0.5,0,0.8,0.1c0.3,0,0.5,0.1,0.8,0.2c0.2,0.1,0.5,0.2,0.7,0.3s0.4,0.3,0.5,0.5
		s0.3,0.4,0.3,0.7c0.1,0.3,0.1,0.5,0.1,0.9s0,0.8-0.1,1.1s-0.2,0.5-0.4,0.8c-0.2,0.2-0.4,0.4-0.6,0.5c-0.2,0.1-0.5,0.2-0.8,0.3
		s-0.6,0.1-1,0.1s-0.7,0-1.1,0h-0.5v3.8L139.2,47.5L139.2,47.5z M140.6,42.5h1c0.3,0,0.7,0,0.9-0.1c0.3,0,0.5-0.1,0.7-0.2
		c0.2-0.1,0.3-0.3,0.4-0.5c0.1-0.2,0.1-0.5,0.1-0.9c0-0.3-0.1-0.6-0.2-0.8c-0.1-0.2-0.3-0.3-0.5-0.5c-0.2-0.1-0.4-0.2-0.7-0.2
		s-0.6,0-0.9,0h-1v3.2H140.6z"/>
	<path class="st2" d="M146.3,47.5v-9.2h1.4V42h3.5v-3.7h1.4v9.2h-1.4v-4.3h-3.5v4.3H146.3z"/>
	<path class="st2" d="M156.3,38.2h1.8l2.8,9.2h-1.5l-0.7-2.5h-2.9l-0.7,2.5h-1.5L156.3,38.2z M157.2,40.1l-0.1-0.4l-0.1,0.4l-1,3.6
		h2.2L157.2,40.1z"/>
	<path class="st2" d="M163.6,42.5l2.2-4.3h1.5l-3,5.7v3.5h-1.4v-3.5l-3-5.7h1.5L163.6,42.5z"/>
	<path class="st2" d="M169.3,38.2h1.8l2.8,9.2h-1.5l-0.7-2.5h-2.9l-0.7,2.5h-1.5L169.3,38.2z M170.2,40.1l-0.1-0.4l-0.1,0.4l-1,3.6
		h2.2L170.2,40.1z"/>
	<path class="st2" d="M174.4,42.7c0-0.4,0-0.7,0-1.1c0-0.4,0.1-0.7,0.2-1.1c0.1-0.4,0.2-0.7,0.4-1s0.4-0.6,0.6-0.8
		c0.3-0.2,0.6-0.4,0.9-0.6s0.8-0.2,1.3-0.2s0.9,0.1,1.3,0.2s0.7,0.3,0.9,0.6c0.2,0.2,0.4,0.5,0.6,0.8c0.1,0.3,0.3,0.6,0.3,1
		c0.1,0.4,0.1,0.7,0.2,1.1s0,0.8,0,1.1c0,0.4,0,0.9,0,1.3s-0.1,0.8-0.2,1.2c-0.1,0.4-0.2,0.7-0.4,1s-0.4,0.6-0.6,0.8
		c-0.2,0.2-0.5,0.4-0.9,0.5s-0.8,0.2-1.3,0.2s-0.9-0.1-1.3-0.2c-0.4-0.1-0.7-0.3-0.9-0.5s-0.4-0.5-0.6-0.8c-0.2-0.3-0.3-0.7-0.4-1
		c-0.1-0.4-0.1-0.8-0.2-1.2S174.4,43.1,174.4,42.7z M179.7,42.7c0-0.3,0-0.6,0-1c0-0.3-0.1-0.6-0.1-0.9c-0.1-0.3-0.1-0.5-0.2-0.7
		c-0.1-0.2-0.2-0.4-0.4-0.6c-0.1-0.2-0.3-0.3-0.5-0.4c-0.2-0.1-0.4-0.1-0.7-0.1s-0.5,0-0.7,0.1s-0.4,0.2-0.5,0.4s-0.3,0.3-0.4,0.6
		c-0.1,0.2-0.2,0.5-0.2,0.7c-0.1,0.3-0.1,0.6-0.1,0.9c0,0.3,0,0.6,0,1c0,0.6,0,1.2,0.1,1.7c0,0.5,0.1,0.9,0.3,1.2
		c0.1,0.3,0.3,0.6,0.6,0.7c0.3,0.2,0.6,0.2,1,0.2s0.7-0.1,1-0.2c0.3-0.2,0.4-0.4,0.6-0.7c0.1-0.3,0.2-0.7,0.3-1.2
		C179.7,43.9,179.7,43.4,179.7,42.7z"/>
</g>
</svg>
